<?xml version="1.0" encoding="UTF-8" standalone="no"?>
<svg
   height="48"
   width="48"
   version="1.1"
   id="svg4"
   sodipodi:docname="assignment_FILL0_wght400_GRAD0_opsz48.svg"
   inkscape:version="1.1.2 (0a00cf5339, 2022-02-04)"
   xmlns:inkscape="http://www.inkscape.org/namespaces/inkscape"
   xmlns:sodipodi="http://sodipodi.sourceforge.net/DTD/sodipodi-0.dtd"
   xmlns="http://www.w3.org/2000/svg"
   xmlns:svg="http://www.w3.org/2000/svg">
  <defs
     id="defs8" />
  <sodipodi:namedview
     id="namedview6"
     pagecolor="#ffffff"
     bordercolor="#999999"
     borderopacity="1"
     inkscape:pageshadow="0"
     inkscape:pageopacity="0"
     inkscape:pagecheckerboard="0"
     showgrid="false"
     inkscape:zoom="16.291667"
     inkscape:cx="24"
     inkscape:cy="14.148338"
     inkscape:window-width="1846"
     inkscape:window-height="1016"
     inkscape:window-x="0"
     inkscape:window-y="0"
     inkscape:window-maximized="1"
     inkscape:current-layer="svg4" />
  <path
     d="M 9,48 Q 7.75,48 6.875,47.125 6,46.25 6,45 V 15 Q 6,13.75 6.875,12.875 7.75,12 9,12 H 19.25 Q 19.5,10.25 20.85,9.125 22.2,8 24,8 25.8,8 27.15,9.125 28.5,10.25 28.75,12 H 39 q 1.25,0 2.125,0.875 Q 42,13.75 42,15 v 30 q 0,1.25 -0.875,2.125 Q 40.25,48 39,48 Z M 9,45 H 39 V 15 H 9 Z m 5,-5 H 27.65 V 37 H 14 Z m 0,-8.5 h 20 v -3 H 14 Z M 14,23 H 34 V 20 H 14 Z m 10,-8.85 q 0.7,0 1.225,-0.525 Q 25.75,13.1 25.75,12.4 25.75,11.7 25.225,11.175 24.7,10.65 24,10.65 q -0.7,0 -1.225,0.525 -0.525,0.525 -0.525,1.225 0,0.7 0.525,1.225 Q 23.3,14.15 24,14.15 Z M 9,45 V 15 Z"
     id="path2" />
</svg>
